<svg width="750" height="750" viewBox="0 0 750 750" fill="none" xmlns="http://www.w3.org/2000/svg">
<g filter="url(#filter0_d_1122_1246)">
<path d="M588.338 218.976C701.104 284.076 690.657 421.155 581.065 476.674C468.299 541.774 285.468 541.774 172.702 476.674C57.5579 413.776 52.5217 285.552 165.288 220.452C278.054 155.352 475.572 153.876 588.338 218.976Z" fill="url(#paint0_linear_1122_1246)"/>
</g>
<g filter="url(#filter1_d_1122_1246)">
<circle cx="235.763" cy="235.763" r="235.763" transform="matrix(0.866044 -0.499967 0.866044 0.499967 -31.4824 331.252)" fill="url(#paint1_linear_1122_1246)"/>
<circle cx="235.763" cy="235.763" r="234.199" transform="matrix(0.866044 -0.499967 0.866044 0.499967 -31.4824 331.252)" stroke="url(#paint2_linear_1122_1246)" stroke-opacity="0.46" stroke-width="3.12977"/>
<circle cx="235.763" cy="235.763" r="235.763" transform="matrix(0.866044 -0.499967 0.866044 0.499967 -31.4824 331.252)" fill="url(#paint3_linear_1122_1246)"/>
<circle cx="235.763" cy="235.763" r="234.199" transform="matrix(0.866044 -0.499967 0.866044 0.499967 -31.4824 331.252)" stroke="url(#paint4_linear_1122_1246)" stroke-opacity="0.46" stroke-width="3.12977"/>
</g>
<g filter="url(#filter2_d_1122_1246)">
<path fill-rule="evenodd" clip-rule="evenodd" d="M383.698 239.495C384.292 239.465 384.884 239.435 385.475 239.407C401.006 238.659 405.462 249.076 404.925 259.888C404.608 266.271 404.306 272.368 403.611 276.3C402.516 282.499 398.845 288.951 392.52 295.543C377.227 311.497 359.169 326.341 338.908 339.615C308.589 359.469 277.297 364.722 245.552 357.247L238.012 355.47C225.155 351.615 214.421 346.917 207.182 339.219C202.675 334.426 200.254 329.124 199.975 323.543C199.94 322.842 199.889 321.903 199.827 320.794C199.542 315.626 199.052 306.761 199.114 301.067C199.142 298.525 201.041 296.126 203.434 297.669C205.273 298.855 207.325 300.177 209.089 298.435C223.405 284.293 242.611 270.935 260.352 258.596L260.758 258.314C294.096 235.14 329.243 228.782 365.343 238.706C370.597 240.155 377.218 239.822 383.698 239.495ZM302.246 324.853C321.155 313.124 337.006 299.413 351.183 285.068C360.446 275.717 358.343 269.042 347.125 264.339C334.624 259.117 316.69 260.801 302.693 269.555C284.195 281.248 267.799 294.517 254.11 308.872C243.495 319.884 246.268 327.004 260.686 331.186C274.343 335.148 288.667 333.284 302.246 324.853ZM531.268 290.953C536.673 292.989 542.084 296.53 546.005 299.753C547.15 300.682 550.114 298.571 552.91 296.58C556.465 294.048 558.479 295.543 558.289 298.669C558.143 301.054 558.017 303.828 557.892 306.564C557.678 311.23 557.47 315.785 557.183 318.106C556.321 325.08 551.355 332.486 542.332 340.125C513.466 364.562 482.36 371.661 445.947 361.851C445.449 361.716 444.937 361.577 444.413 361.435C439.838 360.193 434.449 358.73 431.408 357.634C429.562 357.098 427.816 356.426 426.11 355.768C421.98 354.175 418.079 352.671 413.523 353.415C408.611 354.217 403.791 358.535 399.352 362.511C397.974 363.745 396.633 364.946 395.338 365.999C389.992 370.348 385.013 374.704 379.985 379.104C377.629 381.165 375.262 383.236 372.842 385.321C368.127 389.368 363.492 390.361 358.052 388.783C355.484 388.038 352.614 387.237 349.745 386.436C344.015 384.836 338.291 383.239 335.002 382.096C330.066 380.382 329.438 379.023 328.758 375.14C328.758 373.855 328.677 372.176 328.588 370.326C328.294 364.206 327.909 356.213 330.066 354.432C330.939 353.711 335.336 355.121 339.733 356.53C344.13 357.939 348.527 359.349 349.4 358.628C361.57 348.578 372.581 339.25 383.586 329.926C394.721 320.492 405.85 311.063 418.169 300.897C421.456 298.185 424.746 295.477 428.036 292.768C435.696 286.463 443.354 280.16 450.955 273.823C454.739 270.669 458.805 269.044 463.361 270.445C471.294 272.875 479.389 275.132 487.489 277.391C502.389 281.547 517.308 285.707 531.268 290.953ZM464.656 338.562C478.815 340.799 493.145 336.018 502.71 325.887C508.747 319.488 508.368 315.045 501.156 311.631C495.79 309.082 489.623 307.424 483.453 305.765C479.913 304.813 476.372 303.861 472.982 302.74C470.739 301.998 469.397 302.92 467.731 304.306C459.722 310.95 451.638 317.578 443.316 324.403C439.535 327.504 440.066 331.622 444.408 332.882L459.914 337.38C461.418 337.868 463.004 338.263 464.656 338.562Z" fill="white" fill-opacity="0.64" shape-rendering="crispEdges"/>
</g>
<g filter="url(#filter3_b_1122_1246)">
<mask id="path-7-inside-1_1122_1246" fill="white">
<path fill-rule="evenodd" clip-rule="evenodd" d="M365.085 216.073C377.795 219.578 388.827 224.533 396.19 232.506C407.251 244.482 406.229 258.356 392.262 272.909C376.969 288.863 358.911 303.708 338.65 316.982C308.332 336.836 277.039 342.089 245.294 334.613L237.754 332.837C224.897 328.982 214.163 324.283 206.924 316.586C195.942 304.907 197.348 290.21 211.938 275.802C226.363 261.551 242.647 248.097 260.5 235.68C293.838 212.507 328.985 206.149 365.085 216.073ZM301.988 302.22C320.897 290.491 336.748 276.78 350.926 262.435C360.188 253.083 358.085 246.408 346.867 241.706C334.366 236.484 316.433 238.168 302.435 246.921C283.937 258.615 267.541 271.883 253.852 286.239C243.237 297.251 246.01 304.371 260.428 308.553C274.085 312.515 288.409 310.65 301.988 302.22ZM534.901 268.32C540.305 270.357 545.043 273.029 548.963 276.253C563.479 288.033 561.576 302.302 543.635 317.493C514.769 341.93 482.885 349.029 446.472 339.219C445.975 339.083 445.462 338.944 444.939 338.802C440.364 337.561 434.975 336.098 431.934 335.002C430.087 334.466 428.342 333.793 426.636 333.135C422.506 331.543 418.604 330.039 414.049 330.783C409.57 331.514 405.919 335.169 402.27 338.822C400.675 340.418 399.08 342.015 397.417 343.366C389.566 349.753 381.73 356.156 374.144 362.688C369.429 366.735 364.794 367.728 359.354 366.15L336.304 359.464C328.229 357.099 327.974 355.725 334.857 350.038C363.831 326.111 392.812 302.187 421.802 278.264C425.087 275.553 428.377 272.845 431.666 270.138C439.327 263.832 446.985 257.528 454.587 251.191C458.372 248.036 462.438 246.411 466.993 247.813C474.926 250.242 483.021 252.5 491.121 254.759C506.022 258.914 520.94 263.074 534.901 268.32ZM468.288 315.929C482.447 318.167 496.777 313.386 506.342 303.255C512.38 296.855 512.001 292.413 504.788 288.998C499.423 286.45 493.255 284.791 487.085 283.132C483.545 282.18 480.005 281.228 476.615 280.108C474.372 279.366 473.029 280.287 471.363 281.674C463.354 288.317 455.271 294.945 446.948 301.77C443.167 304.871 443.699 308.99 448.041 310.25L463.546 314.747C465.051 315.235 466.636 315.63 468.288 315.929Z"/>
</mask>
<path fill-rule="evenodd" clip-rule="evenodd" d="M365.085 216.073C377.795 219.578 388.827 224.533 396.19 232.506C407.251 244.482 406.229 258.356 392.262 272.909C376.969 288.863 358.911 303.708 338.65 316.982C308.332 336.836 277.039 342.089 245.294 334.613L237.754 332.837C224.897 328.982 214.163 324.283 206.924 316.586C195.942 304.907 197.348 290.21 211.938 275.802C226.363 261.551 242.647 248.097 260.5 235.68C293.838 212.507 328.985 206.149 365.085 216.073ZM301.988 302.22C320.897 290.491 336.748 276.78 350.926 262.435C360.188 253.083 358.085 246.408 346.867 241.706C334.366 236.484 316.433 238.168 302.435 246.921C283.937 258.615 267.541 271.883 253.852 286.239C243.237 297.251 246.01 304.371 260.428 308.553C274.085 312.515 288.409 310.65 301.988 302.22ZM534.901 268.32C540.305 270.357 545.043 273.029 548.963 276.253C563.479 288.033 561.576 302.302 543.635 317.493C514.769 341.93 482.885 349.029 446.472 339.219C445.975 339.083 445.462 338.944 444.939 338.802C440.364 337.561 434.975 336.098 431.934 335.002C430.087 334.466 428.342 333.793 426.636 333.135C422.506 331.543 418.604 330.039 414.049 330.783C409.57 331.514 405.919 335.169 402.27 338.822C400.675 340.418 399.08 342.015 397.417 343.366C389.566 349.753 381.73 356.156 374.144 362.688C369.429 366.735 364.794 367.728 359.354 366.15L336.304 359.464C328.229 357.099 327.974 355.725 334.857 350.038C363.831 326.111 392.812 302.187 421.802 278.264C425.087 275.553 428.377 272.845 431.666 270.138C439.327 263.832 446.985 257.528 454.587 251.191C458.372 248.036 462.438 246.411 466.993 247.813C474.926 250.242 483.021 252.5 491.121 254.759C506.022 258.914 520.94 263.074 534.901 268.32ZM468.288 315.929C482.447 318.167 496.777 313.386 506.342 303.255C512.38 296.855 512.001 292.413 504.788 288.998C499.423 286.45 493.255 284.791 487.085 283.132C483.545 282.18 480.005 281.228 476.615 280.108C474.372 279.366 473.029 280.287 471.363 281.674C463.354 288.317 455.271 294.945 446.948 301.77C443.167 304.871 443.699 308.99 448.041 310.25L463.546 314.747C465.051 315.235 466.636 315.63 468.288 315.929Z" fill="white" fill-opacity="0.91"/>
<path d="M396.19 232.506L392.903 234.276L392.903 234.276L396.19 232.506ZM365.085 216.073L367.131 213.597L367.128 213.597L365.085 216.073ZM392.262 272.909L389.309 271.843L389.308 271.844L392.262 272.909ZM338.65 316.982L340.827 318.685L340.827 318.685L338.65 316.982ZM245.294 334.613L243.383 337.124L243.384 337.124L245.294 334.613ZM237.754 332.837L235.632 335.29L235.735 335.321L235.843 335.347L237.754 332.837ZM206.924 316.586L203.649 318.368L203.649 318.368L206.924 316.586ZM211.938 275.802L214.817 276.944L214.817 276.943L211.938 275.802ZM260.5 235.68L258.209 234.054L258.208 234.054L260.5 235.68ZM350.926 262.435L348.016 261.325L348.013 261.328L350.926 262.435ZM301.988 302.22L299.918 300.449L299.916 300.45L301.988 302.22ZM346.867 241.706L349.313 239.368L349.309 239.367L346.867 241.706ZM302.435 246.921L300.348 245.16L300.338 245.167L300.327 245.173L302.435 246.921ZM253.852 286.239L256.798 287.312L256.805 287.304L256.813 287.297L253.852 286.239ZM548.963 276.253L545.879 278.213L545.884 278.218L545.89 278.222L548.963 276.253ZM534.901 268.32L537.241 265.94L537.238 265.939L534.901 268.32ZM543.635 317.493L546.277 318.85L546.277 318.85L543.635 317.493ZM446.472 339.219L444.438 341.698L444.447 341.7L446.472 339.219ZM444.939 338.802L446.971 336.323L446.971 336.323L444.939 338.802ZM431.934 335.002L434.231 332.605L434.13 332.569L434.025 332.539L431.934 335.002ZM426.636 333.135L428.999 330.764L426.636 333.135ZM414.049 330.783L414.021 333.333L414.049 330.783ZM402.27 338.822L399.372 337.699L399.372 337.699L402.27 338.822ZM397.417 343.366L394.844 341.952L394.842 341.953L397.417 343.366ZM374.144 362.688L376.809 364.026L376.814 364.022L374.144 362.688ZM336.304 359.464L334.204 361.924L334.213 361.927L336.304 359.464ZM334.857 350.038L332.256 348.645L332.255 348.646L334.857 350.038ZM421.802 278.264L419.203 276.871L419.202 276.871L421.802 278.264ZM431.666 270.138L434.261 271.535L431.666 270.138ZM454.587 251.191L451.971 249.812L451.971 249.812L454.587 251.191ZM466.993 247.813L464.848 250.259L464.852 250.261L466.993 247.813ZM491.121 254.759L489.066 257.232L491.121 254.759ZM506.342 303.255L509.316 304.299L509.317 304.298L506.342 303.255ZM468.288 315.929L466.579 318.481L466.624 318.489L466.67 318.496L468.288 315.929ZM504.788 288.998L502.217 291.28L502.22 291.282L504.788 288.998ZM487.085 283.132L485.062 285.614L487.085 283.132ZM476.615 280.108L474.401 282.532L474.401 282.533L476.615 280.108ZM471.363 281.674L473.971 283.06L473.977 283.055L471.363 281.674ZM463.546 314.747L465.741 312.316L465.69 312.3L465.638 312.285L463.546 314.747ZM446.948 301.77L444.36 300.368L446.948 301.77ZM399.478 230.737C391.721 222.338 380.157 217.189 367.131 213.597L363.04 218.549C375.433 221.966 385.933 226.728 392.903 234.276L399.478 230.737ZM395.214 273.976C402.602 266.278 406.674 258.637 407.346 251.272C408.017 243.918 405.282 237.02 399.478 230.737L392.903 234.276C398.16 239.967 400.444 245.994 399.877 252.21C399.311 258.414 395.888 264.987 389.309 271.843L395.214 273.976ZM340.827 318.685C361.382 305.219 379.701 290.159 395.216 273.974L389.308 271.844C374.236 287.567 356.44 302.197 336.472 315.278L340.827 318.685ZM243.384 337.124C259.722 340.971 276.166 341.592 292.591 338.577C309.035 335.558 325.153 328.95 340.827 318.685L336.473 315.278C321.829 324.868 307.142 330.814 292.423 333.516C277.687 336.221 262.611 335.731 247.205 332.103L243.384 337.124ZM235.843 335.347L243.383 337.124L247.205 332.103L239.665 330.326L235.843 335.347ZM203.649 318.368C211.289 326.492 222.556 331.37 235.632 335.29L239.875 330.383C227.238 326.594 217.038 322.075 210.2 314.804L203.649 318.368ZM209.059 274.661C193.432 290.093 191.964 305.942 203.649 318.368L210.2 314.804C199.921 303.873 201.265 290.326 214.817 276.944L209.059 274.661ZM258.208 234.054C240.139 246.621 223.658 260.238 209.058 274.661L214.817 276.943C229.068 262.864 245.155 249.573 262.792 237.306L258.208 234.054ZM367.128 213.597C348.598 208.502 330.051 207.519 311.661 210.937C293.255 214.357 275.384 222.115 258.209 234.054L262.791 237.307C278.954 226.072 295.326 219.064 311.853 215.993C328.395 212.919 345.472 213.719 363.042 218.55L367.128 213.597ZM348.013 261.328C333.975 275.531 318.398 288.985 299.918 300.449L304.059 303.991C323.397 291.996 339.522 278.028 353.838 263.543L348.013 261.328ZM344.421 244.044C349.676 246.247 352.287 248.706 352.875 251.321C353.447 253.867 352.215 257.085 348.016 261.325L353.835 263.546C358.899 258.433 361.247 253.638 360.279 249.333C359.326 245.097 355.276 241.868 349.313 239.368L344.421 244.044ZM304.522 248.683C316.993 240.883 333.08 239.307 344.424 244.046L349.309 239.367C335.652 233.661 315.872 235.452 300.348 245.16L304.522 248.683ZM256.813 287.297C270.262 273.193 286.369 260.158 304.543 248.669L300.327 245.173C281.504 257.072 264.821 270.574 250.891 285.181L256.813 287.297ZM262.519 306.09C255.677 304.106 252.304 301.616 251.418 298.829C250.553 296.106 251.862 292.433 256.798 287.312L250.905 285.166C245.227 291.057 242.615 296.45 244.087 301.086C245.539 305.657 250.761 308.818 258.337 311.016L262.519 306.09ZM299.916 300.45C293.699 304.31 287.479 306.572 281.357 307.47C275.211 308.371 268.887 307.938 262.519 306.09L258.337 311.016C265.626 313.13 273.293 313.746 281.118 312.598C288.968 311.446 296.699 308.561 304.061 303.99L299.916 300.45ZM552.048 274.293C547.92 270.899 542.931 268.084 537.241 265.94L532.56 270.701C537.679 272.629 542.166 275.16 545.879 278.213L552.048 274.293ZM546.277 318.85C555.709 310.864 561.196 302.883 562.197 295.196C563.199 287.509 559.667 280.476 552.037 274.284L545.89 278.222C552.775 283.81 555.55 289.802 554.744 295.992C553.937 302.182 549.502 308.93 540.993 316.135L546.277 318.85ZM444.447 341.7C463.106 346.727 480.993 347.525 498.185 343.685C515.414 339.836 531.387 331.455 546.277 318.85L540.993 316.135C527.016 327.967 512.615 335.354 497.582 338.712C482.513 342.078 466.251 341.521 448.497 336.738L444.447 341.7ZM442.907 341.282C443.431 341.424 443.942 341.563 444.438 341.698L448.506 336.74C448.008 336.604 447.494 336.465 446.971 336.323L442.907 341.282ZM429.637 337.398C432.839 338.552 438.399 340.058 442.907 341.282L446.971 336.323C442.329 335.063 437.11 333.644 434.231 332.605L429.637 337.398ZM424.273 335.507C425.957 336.156 427.832 336.881 429.842 337.464L434.025 332.539C432.342 332.051 430.727 331.43 428.999 330.764L424.273 335.507ZM414.021 333.333C415.406 333.106 416.865 333.189 418.597 333.594C420.372 334.01 422.157 334.691 424.273 335.507L428.999 330.764C426.985 329.987 424.754 329.12 422.407 328.571C420.017 328.012 417.247 327.715 414.077 328.233L414.021 333.333ZM405.168 339.944C407.045 338.064 408.661 336.459 410.299 335.218C411.927 333.983 413.099 333.483 414.021 333.333L414.077 328.233C410.52 328.814 407.627 330.507 405.398 332.196C403.178 333.878 401.143 335.926 399.372 337.699L405.168 339.944ZM399.99 344.781C401.86 343.262 403.609 341.504 405.168 339.944L399.372 337.699C397.741 339.332 396.301 340.768 394.844 341.952L399.99 344.781ZM376.814 364.022C384.349 357.534 392.14 351.167 399.992 344.78L394.842 341.953C386.992 348.34 379.112 354.778 371.474 361.354L376.814 364.022ZM357.263 368.613C360.406 369.525 363.778 369.828 367.355 369.007C370.949 368.183 374.063 366.383 376.809 364.026L371.479 361.35C369.51 363.04 367.949 363.76 366.687 364.05C365.408 364.343 363.742 364.354 361.445 363.687L357.263 368.613ZM334.213 361.927L357.263 368.613L361.445 363.687L338.395 357.001L334.213 361.927ZM332.255 348.646C330.504 350.093 328.988 351.441 327.938 352.68C326.875 353.935 326.015 355.4 326.249 356.888C326.481 358.359 327.705 359.331 329.036 360.027C330.363 360.721 332.154 361.323 334.204 361.924L338.404 357.004C336.417 356.422 335.148 355.965 334.371 355.559C333.598 355.154 333.674 354.984 333.693 355.105C333.714 355.242 333.577 355.15 334.149 354.474C334.735 353.783 335.768 352.826 337.458 351.429L332.255 348.646ZM419.202 276.871C390.213 300.794 361.231 324.718 332.256 348.645L337.457 351.43C366.431 327.504 395.412 303.58 424.401 279.658L419.202 276.871ZM429.071 268.741C425.782 271.448 422.491 274.158 419.203 276.871L424.401 279.658C427.684 276.949 430.972 274.243 434.261 271.535L429.071 268.741ZM451.971 249.812C444.381 256.138 436.734 262.434 429.071 268.741L434.261 271.535C441.92 265.23 449.589 258.918 457.203 252.57L451.971 249.812ZM469.139 245.366C466.161 244.45 462.983 244.444 459.771 245.42C456.716 246.348 454.127 248.015 451.971 249.812L457.203 252.57C458.832 251.213 460.168 250.49 461.232 250.167C462.137 249.892 463.27 249.774 464.848 250.259L469.139 245.366ZM493.177 252.286C485.069 250.025 477.018 247.779 469.135 245.365L464.852 250.261C472.834 252.705 480.973 254.975 489.066 257.232L493.177 252.286ZM537.238 265.939C523.119 260.634 508.053 256.434 493.177 252.286L489.066 257.232C503.99 261.394 518.761 265.515 532.563 270.702L537.238 265.939ZM503.368 302.211C499.041 306.794 493.773 310.033 488.157 311.905C482.542 313.776 476.301 314.372 469.907 313.362L466.67 318.496C474.434 319.724 482.438 319.048 489.919 316.555C497.399 314.063 504.078 309.847 509.316 304.299L503.368 302.211ZM502.22 291.282C505.439 292.806 506.648 294.328 506.801 295.811C506.956 297.309 506.091 299.324 503.367 302.212L509.317 304.298C512.63 300.786 514.595 297.379 514.267 294.203C513.937 291.011 511.35 288.606 507.356 286.715L502.22 291.282ZM485.062 285.614C491.28 287.286 497.147 288.872 502.217 291.28L507.359 286.716C501.698 284.027 495.23 282.296 489.109 280.65L485.062 285.614ZM474.401 282.533C477.9 283.689 481.538 284.666 485.062 285.614L489.109 280.65C485.552 279.694 482.109 278.767 478.828 277.683L474.401 282.533ZM473.977 283.055C474.374 282.725 474.631 282.525 474.828 282.39C475.019 282.26 475.021 282.284 474.871 282.341C474.788 282.372 474.676 282.406 474.546 282.432C474.416 282.457 474.305 282.466 474.223 282.466C474.071 282.468 474.121 282.44 474.401 282.532L478.828 277.683C477.059 277.098 474.948 276.986 472.674 277.844C470.859 278.529 469.504 279.664 468.749 280.293L473.977 283.055ZM449.537 303.172C457.858 296.349 465.951 289.712 473.971 283.06L468.755 280.288C460.757 286.921 452.684 293.542 444.36 300.368L449.537 303.172ZM465.638 312.285L450.132 307.787L445.949 312.712L461.455 317.21L465.638 312.285ZM469.997 313.377C468.514 313.109 467.091 312.754 465.741 312.316L461.351 317.178C463.01 317.716 464.758 318.152 466.579 318.481L469.997 313.377ZM444.36 300.368C438.855 304.883 439.629 310.879 445.949 312.712L450.132 307.787C447.768 307.101 447.48 304.859 449.537 303.172L444.36 300.368Z" fill="url(#paint5_linear_1122_1246)" mask="url(#path-7-inside-1_1122_1246)"/>
</g>
<defs>
<filter id="filter0_d_1122_1246" x="0.00442505" y="170.883" width="751.675" height="542.403" filterUnits="userSpaceOnUse" color-interpolation-filters="sRGB">
<feFlood flood-opacity="0" result="BackgroundImageFix"/>
<feColorMatrix in="SourceAlpha" type="matrix" values="0 0 0 0 0 0 0 0 0 0 0 0 0 0 0 0 0 0 127 0" result="hardAlpha"/>
<feOffset dy="104.326"/>
<feGaussianBlur stdDeviation="41.7302"/>
<feComposite in2="hardAlpha" operator="out"/>
<feColorMatrix type="matrix" values="0 0 0 0 0.858333 0 0 0 0 0.160937 0 0 0 0 0.160937 0 0 0 0.47 0"/>
<feBlend mode="normal" in2="BackgroundImageFix" result="effect1_dropShadow_1122_1246"/>
<feBlend mode="normal" in="SourceGraphic" in2="effect1_dropShadow_1122_1246" result="shape"/>
</filter>
<filter id="filter1_d_1122_1246" x="68.1801" y="156.189" width="617.401" height="373.288" filterUnits="userSpaceOnUse" color-interpolation-filters="sRGB">
<feFlood flood-opacity="0" result="BackgroundImageFix"/>
<feColorMatrix in="SourceAlpha" type="matrix" values="0 0 0 0 0 0 0 0 0 0 0 0 0 0 0 0 0 0 127 0" result="hardAlpha"/>
<feOffset dy="11.5809"/>
<feGaussianBlur stdDeviation="9.97243"/>
<feComposite in2="hardAlpha" operator="out"/>
<feColorMatrix type="matrix" values="0 0 0 0 0.4875 0 0 0 0 0.0121875 0 0 0 0 0.382931 0 0 0 0.25 0"/>
<feBlend mode="normal" in2="BackgroundImageFix" result="effect1_dropShadow_1122_1246"/>
<feBlend mode="normal" in="SourceGraphic" in2="effect1_dropShadow_1122_1246" result="shape"/>
</filter>
<filter id="filter2_d_1122_1246" x="174.661" y="229.037" width="408.088" height="204.21" filterUnits="userSpaceOnUse" color-interpolation-filters="sRGB">
<feFlood flood-opacity="0" result="BackgroundImageFix"/>
<feColorMatrix in="SourceAlpha" type="matrix" values="0 0 0 0 0 0 0 0 0 0 0 0 0 0 0 0 0 0 127 0" result="hardAlpha"/>
<feOffset dy="19.3015"/>
<feGaussianBlur stdDeviation="12.2243"/>
<feComposite in2="hardAlpha" operator="out"/>
<feColorMatrix type="matrix" values="0 0 0 0 0.4875 0 0 0 0 0.0121875 0 0 0 0 0.211819 0 0 0 0.61 0"/>
<feBlend mode="normal" in2="BackgroundImageFix" result="effect1_dropShadow_1122_1246"/>
<feBlend mode="normal" in="SourceGraphic" in2="effect1_dropShadow_1122_1246" result="shape"/>
</filter>
<filter id="filter3_b_1122_1246" x="185.535" y="197.396" width="387.24" height="183.621" filterUnits="userSpaceOnUse" color-interpolation-filters="sRGB">
<feFlood flood-opacity="0" result="BackgroundImageFix"/>
<feGaussianBlur in="BackgroundImageFix" stdDeviation="7.07721"/>
<feComposite in2="SourceAlpha" operator="in" result="effect1_backgroundBlur_1122_1246"/>
<feBlend mode="normal" in="SourceGraphic" in2="effect1_backgroundBlur_1122_1246" result="shape"/>
</filter>
<linearGradient id="paint0_linear_1122_1246" x1="364.048" y1="563.799" x2="580.284" y2="236.442" gradientUnits="userSpaceOnUse">
<stop offset="0.177083" stop-color="#E91616"/>
<stop offset="1" stop-color="#ED363D"/>
</linearGradient>
<linearGradient id="paint1_linear_1122_1246" x1="-23.6051" y1="-40.6202" x2="296.672" y2="70.1514" gradientUnits="userSpaceOnUse">
<stop stop-color="#FE4852"/>
<stop offset="1" stop-color="#FF0420"/>
</linearGradient>
<linearGradient id="paint2_linear_1122_1246" x1="40.8563" y1="191.797" x2="247.866" y2="385.95" gradientUnits="userSpaceOnUse">
<stop stop-color="white" stop-opacity="0.43"/>
<stop offset="0.846595" stop-color="white" stop-opacity="0.44"/>
<stop offset="1" stop-color="white" stop-opacity="0"/>
</linearGradient>
<linearGradient id="paint3_linear_1122_1246" x1="481.691" y1="387.181" x2="69.1742" y2="493.358" gradientUnits="userSpaceOnUse">
<stop stop-color="#FF8970"/>
<stop offset="0.741031" stop-color="#FF0420"/>
</linearGradient>
<linearGradient id="paint4_linear_1122_1246" x1="40.8563" y1="191.797" x2="247.866" y2="385.95" gradientUnits="userSpaceOnUse">
<stop stop-color="white" stop-opacity="0.43"/>
<stop offset="0.846595" stop-color="white" stop-opacity="0.44"/>
<stop offset="1" stop-color="white" stop-opacity="0"/>
</linearGradient>
<linearGradient id="paint5_linear_1122_1246" x1="272.481" y1="256.537" x2="283.553" y2="357.611" gradientUnits="userSpaceOnUse">
<stop stop-color="white" stop-opacity="0.09"/>
<stop offset="0.846595" stop-color="white" stop-opacity="0.79"/>
<stop offset="1" stop-color="white" stop-opacity="0.17"/>
</linearGradient>
</defs>
</svg>
